<svg width="100" height="100" viewBox="0 0 96 96" fill="none" xmlns="http://www.w3.org/2000/svg">
<path d="M33.924 87.748C34.2838 88.138 34.4751 88.6543 34.4563 89.1846C34.4376 89.7148 34.2104 90.2163 33.824 90.58L29.48 94.642C29.0921 95.0024 28.577 95.1941 28.0479 95.1749C27.5188 95.1558 27.0189 94.9274 26.658 94.54L1.36 67.276C1.0005 66.8857 0.80955 66.3693 0.828649 65.839C0.847749 65.3087 1.07535 64.8074 1.462 64.444L5.812 60.388C6.00395 60.2093 6.22922 60.0702 6.47496 59.9786C6.72069 59.887 6.98206 59.8448 7.24414 59.8542C7.50621 59.8637 7.76385 59.9247 8.00233 60.0338C8.24081 60.1429 8.45546 60.2979 8.634 60.49L33.924 87.748ZM66.204 36.448C66.5635 36.8383 66.7544 37.3547 66.7353 37.885C66.7162 38.4153 66.4886 38.9166 66.102 39.28L38.762 64.82C38.3741 65.1804 37.859 65.3721 37.3299 65.3529C36.8008 65.3338 36.3009 65.1055 35.94 64.718L29.414 57.676C29.0545 57.2857 28.8635 56.7693 28.8826 56.239C28.9017 55.7087 29.1294 55.2074 29.516 54.844L56.85 29.304C57.0418 29.1254 57.2669 28.9863 57.5125 28.8947C57.758 28.8032 58.0192 28.7609 58.2811 28.7704C58.5431 28.7799 58.8005 28.8409 59.0388 28.95C59.2772 29.059 59.4916 29.214 59.67 29.406L66.204 36.448V36.448ZM43.226 79.054C43.974 79.86 43.928 81.134 43.124 81.886L38.774 85.946C38.5821 86.1247 38.3568 86.2638 38.111 86.3554C37.8653 86.447 37.6039 86.4892 37.3419 86.4798C37.0798 86.4703 36.8221 86.4093 36.5837 86.3002C36.3452 86.1911 36.1305 86.0361 35.952 85.844L10.668 58.58C10.3082 58.19 10.1169 57.6737 10.1357 57.1434C10.1544 56.6132 10.3816 56.1117 10.768 55.748L15.11 51.69C15.4979 51.3296 16.013 51.1379 16.5421 51.1571C17.0712 51.1762 17.5711 51.4046 17.932 51.792L43.226 79.054ZM85.352 37.426C85.7112 37.8166 85.9018 38.3331 85.8824 38.8634C85.8629 39.3937 85.6349 39.8949 85.248 40.258L80.9 44.318C80.512 44.6788 79.9968 44.8708 79.4673 44.8521C78.9379 44.8333 78.4375 44.6053 78.076 44.218L52.788 16.96C52.4278 16.5702 52.2361 16.0539 52.2549 15.5234C52.2736 14.993 52.5012 14.4914 52.888 14.128L57.248 10.058C57.4398 9.87937 57.6649 9.7403 57.9105 9.64874C58.156 9.55718 58.4172 9.51493 58.6791 9.5244C58.9411 9.53388 59.1985 9.59489 59.4368 9.70395C59.6752 9.81301 59.8896 9.96798 60.068 10.16L85.352 37.426ZM94.64 28.746C94.9991 29.1369 95.1898 29.6535 95.1707 30.1839C95.1516 30.7144 94.9243 31.216 94.538 31.58L90.198 35.638C90.0063 35.8168 89.7813 35.956 89.5358 36.0477C89.2903 36.1394 89.0292 36.1819 88.7673 36.1726C88.5054 36.1633 88.2478 36.1025 88.0095 35.9936C87.7711 35.8847 87.5565 35.7299 87.378 35.538L62.094 8.268C61.7346 7.8774 61.5436 7.36093 61.5623 6.83048C61.581 6.30003 61.808 5.79831 62.194 5.434L66.538 1.368C66.7294 1.18906 66.9542 1.04967 67.1995 0.957822C67.4449 0.865972 67.7059 0.823473 67.9678 0.832764C68.2296 0.842055 68.487 0.902953 68.7252 1.01196C68.9634 1.12097 69.1778 1.27595 69.356 1.468L94.64 28.746V28.746Z" fill="#6366F1"/>
</svg>
