<svg width="100" height="100" viewBox="0 0 545 269" fill="none" xmlns="http://www.w3.org/2000/svg">
<path fill-rule="evenodd" clip-rule="evenodd" d="M32.36 171.84C32.36 171.84 -1.27302 183.613 0.406975 208.836C2.09058 232.379 39.087 257.606 71.036 266.012C102.989 272.739 486.416 264.328 486.416 264.328C486.416 264.328 538.549 262.645 541.912 225.648C546.959 190.332 543.596 104.568 528.459 82.7084C515.006 59.1654 499.869 37.3024 483.053 65.8924C467.916 94.4824 464.553 101.208 417.467 102.888C372.061 104.572 380.471 91.1154 393.924 86.0724C409.061 79.3458 446.057 47.3924 439.33 37.3024C432.603 25.5294 414.103 -8.10361 397.287 1.98639C382.15 12.0764 328.338 81.0254 32.357 171.836L32.36 171.84ZM197.16 146.613L234.156 133.16L350.196 237.43H299.747L197.16 146.613ZM250.972 123.07L296.378 107.933L427.548 234.053H375.415L250.965 123.063L250.972 123.07Z" fill="#6366F1"/>
</svg>
