<svg width="84" height="90" viewBox="0 0 84 90" fill="none" xmlns="http://www.w3.org/2000/svg">
<path d="M60.75 16.9167C62.9601 16.9167 65.0798 16.0387 66.6426 14.4759C68.2054 12.9131 69.0833 10.7935 69.0833 8.58333C69.0833 6.3732 68.2054 4.25358 66.6426 2.69078C65.0798 1.12797 62.9601 0.25 60.75 0.25C58.5399 0.25 56.4202 1.12797 54.8574 2.69078C53.2946 4.25358 52.4167 6.3732 52.4167 8.58333C52.4167 10.7935 53.2946 12.9131 54.8574 14.4759C56.4202 16.0387 58.5399 16.9167 60.75 16.9167ZM45.75 74.8333L49.9167 56.5L58.6667 64.8333V89.8333H67V58.5833L58.25 50.25L60.75 37.75C63.6047 41.0218 67.1269 43.6443 71.0798 45.4411C75.0327 47.2378 79.3246 48.1672 83.6667 48.1667V39.8333C76.3333 39.9583 69.5 36.125 65.75 29.8333L61.5833 23.1667C60.0833 20.6667 57.4167 19 54.5 19C53.25 19 52.4167 19.4167 51.1667 19.4167L29.5 28.5833V48.1667H37.8333V34L45.3333 31.0833L38.6667 64.8333L18.25 60.6667L16.5833 69L45.75 74.8333ZM8.66667 31.5C7.5616 31.5 6.50179 31.061 5.72039 30.2796C4.93899 29.4982 4.5 28.4384 4.5 27.3333C4.5 26.2283 4.93899 25.1685 5.72039 24.3871C6.50179 23.6057 7.5616 23.1667 8.66667 23.1667H21.1667V31.5H8.66667ZM12.8333 14.8333C11.7283 14.8333 10.6685 14.3943 9.88706 13.6129C9.10566 12.8315 8.66667 11.7717 8.66667 10.6667C8.66667 9.5616 9.10566 8.50179 9.88706 7.72039C10.6685 6.93899 11.7283 6.5 12.8333 6.5H33.6667V14.8333H12.8333ZM4.5 48.1667C3.39493 48.1667 2.33513 47.7277 1.55372 46.9463C0.772323 46.1649 0.333336 45.1051 0.333336 44C0.333336 42.8949 0.772323 41.8351 1.55372 41.0537C2.33513 40.2723 3.39493 39.8333 4.5 39.8333H21.1667V48.1667H4.5Z" fill="#6366F1"/>
</svg>
